<svg width="900.0" height="2392.9714687126248" viewBox="0 0 900.0 2392.9714687126248" xmlns="http://www.w3.org/2000/svg">
<style>/* font and background color specifications */
svg {
    font-family: SFMono-Regular,Consolas,Liberation Mono,Menlo,monospace;
    font-size: 14px;
    font-kerning: normal;
    text-rendering: optimizeLegibility;
    fill: #24292e;
}

/* default key styling */
rect {
    fill: #f6f8fa;
    stroke: #c9cccf;
    stroke-width: 1;
}

/* color accent for combo boxes */
rect.combo {
    fill: #cdf;
}

/* color accent for held keys */
rect.held, rect.combo.held {
    fill: #fdd;
}

/* color accent for ghost (optional) keys */
rect.ghost, rect.combo.ghost {
    fill: #ddd;
}

text {
    text-anchor: middle;
    dominant-baseline: middle;
}

/* styling for layer labels */
text.label {
    font-weight: bold;
    text-anchor: start;
    stroke: white;
    stroke-width: 2;
    paint-order: stroke;
}

/* styling for combo tap, and key hold/shifted label text */
text.combo, text.hold, text.shifted {
    font-size: 11px;
}

text.hold {
    text-anchor: middle;
    dominant-baseline: auto;
}

text.shifted {
    text-anchor: middle;
    dominant-baseline: hanging;
}

/* styling for hold/shifted label text in combo box */
text.combo.hold, text.combo.shifted {
    font-size: 8px;
}

/* styling for combo dendrons */
path {
    stroke-width: 1;
    stroke: gray;
    fill: none;
}
</style>
<g class="layer-BASE">
<text x="30.0" y="28.0" class="label">BASE:</text>
<rect rx="6.0" ry="6.0" x="32.0" y="79.0" width="52.0" height="52.0" class=""/>
<text x="58.0" y="105.0" class="tap">
<tspan x="58.0" dy="-0.6em">Toggle</tspan><tspan x="58.0" dy="1.2em">mic+cam</tspan></text>
<rect rx="6.0" ry="6.0" x="88.0" y="79.0" width="52.0" height="52.0" class=""/>
<text x="114.0" y="105.0" class="tap">Q</text>
<rect rx="6.0" ry="6.0" x="144.0" y="65.0" width="52.0" height="52.0" class=""/>
<text x="170.0" y="91.0" class="tap">W</text>
<rect rx="6.0" ry="6.0" x="200.0" y="58.0" width="52.0" height="52.0" class=""/>
<text x="226.0" y="84.0" class="tap">F</text>
<rect rx="6.0" ry="6.0" x="256.0" y="65.0" width="52.0" height="52.0" class=""/>
<text x="282.0" y="91.0" class="tap">P</text>
<rect rx="6.0" ry="6.0" x="312.0" y="72.0" width="52.0" height="52.0" class=""/>
<text x="338.0" y="98.0" class="tap">B</text>
<rect rx="6.0" ry="6.0" x="536.0" y="72.0" width="52.0" height="52.0" class=""/>
<text x="562.0" y="98.0" class="tap">J</text>
<rect rx="6.0" ry="6.0" x="592.0" y="65.0" width="52.0" height="52.0" class=""/>
<text x="618.0" y="91.0" class="tap">L</text>
<rect rx="6.0" ry="6.0" x="648.0" y="58.0" width="52.0" height="52.0" class=""/>
<text x="674.0" y="84.0" class="tap">U</text>
<rect rx="6.0" ry="6.0" x="704.0" y="65.0" width="52.0" height="52.0" class=""/>
<text x="730.0" y="91.0" class="tap">Y</text>
<rect rx="6.0" ry="6.0" x="760.0" y="79.0" width="52.0" height="52.0" class=""/>
<text x="786.0" y="105.0" class="tap">&#x27;</text>
<text x="786.0" y="81.0" class="shifted">&quot;</text>
<rect rx="6.0" ry="6.0" x="816.0" y="79.0" width="52.0" height="52.0" class=""/>
<rect rx="6.0" ry="6.0" x="32.0" y="135.0" width="52.0" height="52.0" class=""/>
<text x="58.0" y="161.0" class="tap">
<tspan x="58.0" dy="-0.6em">Toggle</tspan><tspan x="58.0" dy="1.2em">mic</tspan></text>
<rect rx="6.0" ry="6.0" x="88.0" y="135.0" width="52.0" height="52.0" class=""/>
<text x="114.0" y="161.0" class="tap">A</text>
<text x="114.0" y="185.0" class="hold">⌘</text>
<rect rx="6.0" ry="6.0" x="144.0" y="121.0" width="52.0" height="52.0" class=""/>
<text x="170.0" y="147.0" class="tap">R</text>
<text x="170.0" y="171.0" class="hold">⎇</text>
<rect rx="6.0" ry="6.0" x="200.0" y="114.0" width="52.0" height="52.0" class=""/>
<text x="226.0" y="140.0" class="tap">S</text>
<text x="226.0" y="164.0" class="hold">⇧</text>
<rect rx="6.0" ry="6.0" x="256.0" y="121.0" width="52.0" height="52.0" class=""/>
<text x="282.0" y="147.0" class="tap">T</text>
<text x="282.0" y="171.0" class="hold">⌃</text>
<rect rx="6.0" ry="6.0" x="312.0" y="128.0" width="52.0" height="52.0" class=""/>
<text x="338.0" y="154.0" class="tap">G</text>
<rect rx="6.0" ry="6.0" x="536.0" y="128.0" width="52.0" height="52.0" class=""/>
<text x="562.0" y="154.0" class="tap">M</text>
<rect rx="6.0" ry="6.0" x="592.0" y="121.0" width="52.0" height="52.0" class=""/>
<text x="618.0" y="147.0" class="tap">N</text>
<text x="618.0" y="171.0" class="hold">⌃</text>
<rect rx="6.0" ry="6.0" x="648.0" y="114.0" width="52.0" height="52.0" class=""/>
<text x="674.0" y="140.0" class="tap">E</text>
<text x="674.0" y="164.0" class="hold">⇧</text>
<rect rx="6.0" ry="6.0" x="704.0" y="121.0" width="52.0" height="52.0" class=""/>
<text x="730.0" y="147.0" class="tap">I</text>
<text x="730.0" y="171.0" class="hold">⎇</text>
<rect rx="6.0" ry="6.0" x="760.0" y="135.0" width="52.0" height="52.0" class=""/>
<text x="786.0" y="161.0" class="tap">O</text>
<text x="786.0" y="185.0" class="hold">⌘</text>
<rect rx="6.0" ry="6.0" x="816.0" y="135.0" width="52.0" height="52.0" class=""/>
<text x="842.0" y="161.0" class="tap">
<tspan x="842.0" dy="-0.6em">Toggle</tspan><tspan x="842.0" dy="1.2em">camera</tspan></text>
<rect rx="6.0" ry="6.0" x="32.0" y="191.0" width="52.0" height="52.0" class=""/>
<rect rx="6.0" ry="6.0" x="88.0" y="191.0" width="52.0" height="52.0" class=""/>
<text x="114.0" y="217.0" class="tap">Z</text>
<rect rx="6.0" ry="6.0" x="144.0" y="177.0" width="52.0" height="52.0" class=""/>
<text x="170.0" y="203.0" class="tap">X</text>
<rect rx="6.0" ry="6.0" x="200.0" y="170.0" width="52.0" height="52.0" class=""/>
<text x="226.0" y="196.0" class="tap">C</text>
<rect rx="6.0" ry="6.0" x="256.0" y="177.0" width="52.0" height="52.0" class=""/>
<text x="282.0" y="203.0" class="tap">D</text>
<rect rx="6.0" ry="6.0" x="312.0" y="184.0" width="52.0" height="52.0" class=""/>
<text x="338.0" y="210.0" class="tap">V</text>
<rect rx="6.0" ry="6.0" x="536.0" y="184.0" width="52.0" height="52.0" class=""/>
<text x="562.0" y="210.0" class="tap">K</text>
<rect rx="6.0" ry="6.0" x="592.0" y="177.0" width="52.0" height="52.0" class=""/>
<text x="618.0" y="203.0" class="tap">H</text>
<rect rx="6.0" ry="6.0" x="648.0" y="170.0" width="52.0" height="52.0" class=""/>
<text x="674.0" y="196.0" class="tap">,</text>
<text x="674.0" y="172.0" class="shifted">;</text>
<rect rx="6.0" ry="6.0" x="704.0" y="177.0" width="52.0" height="52.0" class=""/>
<text x="730.0" y="203.0" class="tap">.</text>
<text x="730.0" y="179.0" class="shifted">:</text>
<rect rx="6.0" ry="6.0" x="760.0" y="191.0" width="52.0" height="52.0" class=""/>
<text x="786.0" y="217.0" class="tap">?</text>
<text x="786.0" y="193.0" class="shifted">!</text>
<rect rx="6.0" ry="6.0" x="816.0" y="191.0" width="52.0" height="52.0" class=""/>
<rect rx="6.0" ry="6.0" x="228.0" y="234.84799999999996" width="52.0" height="52.0" class=""/>
<text x="254.0" y="260.84799999999996" class="tap">
<tspan x="254.0" dy="-0.6em">Smart</tspan><tspan x="254.0" dy="1.2em">Mouse</tspan></text>
<g transform="rotate(15.0, 315.59999999999997, 269.08000000000004)">
<rect rx="6.0" ry="6.0" x="289.59999999999997" y="243.08000000000004" width="52.0" height="52.0" class=""/>
<text x="315.59999999999997" y="269.08000000000004" class="tap">⎵</text>
<text x="315.59999999999997" y="293.08000000000004" class="hold">NAV</text>
</g>
<g transform="rotate(30.0, 381.12, 280.28)">
<rect rx="6.0" ry="6.0" x="355.12" y="240.27999999999997" width="52.0" height="80.0" class=""/>
<text x="381.12" y="280.28" class="tap">↹</text>
<text x="381.12" y="318.28" class="hold">MOUSE</text>
</g>
<g transform="rotate(-30.0, 518.88, 280.28)">
<rect rx="6.0" ry="6.0" x="492.88" y="240.27999999999997" width="52.0" height="80.0" class=""/>
<text x="518.88" y="280.28" class="tap">
<tspan x="518.88" dy="-1.2em">Smart</tspan><tspan x="518.88" dy="1.2em">Num</tspan></text>
<text x="518.88" y="318.28" class="hold">NUM</text>
</g>
<g transform="rotate(-15.0, 584.4, 269.08000000000004)">
<rect rx="6.0" ry="6.0" x="558.4" y="243.08000000000004" width="52.0" height="52.0" class=""/>
<text x="584.4" y="269.08000000000004" class="tap">
<tspan x="584.4" dy="-1.2em">Smart</tspan><tspan x="584.4" dy="1.2em">Shift</tspan></text>
<text x="584.4" y="293.08000000000004" class="hold">⇧</text>
</g>
<rect rx="6.0" ry="6.0" x="620.0" y="234.84799999999996" width="52.0" height="52.0" class=""/>
<text x="646.0" y="260.84799999999996" class="tap">⌫</text>
<text x="646.0" y="236.84799999999996" class="shifted">⌦</text>
</g>
<g class="layer-COMBOS">
<text x="30.0" y="358.6530669589464" class="label">COMBOS:</text>
<rect rx="6.0" ry="6.0" x="32.0" y="409.6530669589464" width="52.0" height="52.0" class=""/>
<rect rx="6.0" ry="6.0" x="88.0" y="409.6530669589464" width="52.0" height="52.0" class=""/>
<rect rx="6.0" ry="6.0" x="144.0" y="395.6530669589464" width="52.0" height="52.0" class=""/>
<rect rx="6.0" ry="6.0" x="200.0" y="388.6530669589464" width="52.0" height="52.0" class=""/>
<rect rx="6.0" ry="6.0" x="256.0" y="395.6530669589464" width="52.0" height="52.0" class=""/>
<rect rx="6.0" ry="6.0" x="312.0" y="402.6530669589464" width="52.0" height="52.0" class=""/>
<rect rx="6.0" ry="6.0" x="536.0" y="402.6530669589464" width="52.0" height="52.0" class=""/>
<rect rx="6.0" ry="6.0" x="592.0" y="395.6530669589464" width="52.0" height="52.0" class=""/>
<rect rx="6.0" ry="6.0" x="648.0" y="388.6530669589464" width="52.0" height="52.0" class=""/>
<rect rx="6.0" ry="6.0" x="704.0" y="395.6530669589464" width="52.0" height="52.0" class=""/>
<rect rx="6.0" ry="6.0" x="760.0" y="409.6530669589464" width="52.0" height="52.0" class=""/>
<rect rx="6.0" ry="6.0" x="816.0" y="409.6530669589464" width="52.0" height="52.0" class=""/>
<rect rx="6.0" ry="6.0" x="32.0" y="465.6530669589464" width="52.0" height="52.0" class=""/>
<rect rx="6.0" ry="6.0" x="88.0" y="465.6530669589464" width="52.0" height="52.0" class=""/>
<rect rx="6.0" ry="6.0" x="144.0" y="451.6530669589464" width="52.0" height="52.0" class=""/>
<rect rx="6.0" ry="6.0" x="200.0" y="444.6530669589464" width="52.0" height="52.0" class=""/>
<rect rx="6.0" ry="6.0" x="256.0" y="451.6530669589464" width="52.0" height="52.0" class=""/>
<rect rx="6.0" ry="6.0" x="312.0" y="458.6530669589464" width="52.0" height="52.0" class=""/>
<rect rx="6.0" ry="6.0" x="536.0" y="458.6530669589464" width="52.0" height="52.0" class=""/>
<rect rx="6.0" ry="6.0" x="592.0" y="451.6530669589464" width="52.0" height="52.0" class=""/>
<rect rx="6.0" ry="6.0" x="648.0" y="444.6530669589464" width="52.0" height="52.0" class=""/>
<rect rx="6.0" ry="6.0" x="704.0" y="451.6530669589464" width="52.0" height="52.0" class=""/>
<rect rx="6.0" ry="6.0" x="760.0" y="465.6530669589464" width="52.0" height="52.0" class=""/>
<rect rx="6.0" ry="6.0" x="816.0" y="465.6530669589464" width="52.0" height="52.0" class=""/>
<rect rx="6.0" ry="6.0" x="32.0" y="521.6530669589464" width="52.0" height="52.0" class=""/>
<rect rx="6.0" ry="6.0" x="88.0" y="521.6530669589464" width="52.0" height="52.0" class=""/>
<rect rx="6.0" ry="6.0" x="144.0" y="507.6530669589464" width="52.0" height="52.0" class=""/>
<rect rx="6.0" ry="6.0" x="200.0" y="500.6530669589464" width="52.0" height="52.0" class=""/>
<rect rx="6.0" ry="6.0" x="256.0" y="507.6530669589464" width="52.0" height="52.0" class=""/>
<rect rx="6.0" ry="6.0" x="312.0" y="514.6530669589464" width="52.0" height="52.0" class=""/>
<rect rx="6.0" ry="6.0" x="536.0" y="514.6530669589464" width="52.0" height="52.0" class=""/>
<rect rx="6.0" ry="6.0" x="592.0" y="507.6530669589464" width="52.0" height="52.0" class=""/>
<rect rx="6.0" ry="6.0" x="648.0" y="500.6530669589464" width="52.0" height="52.0" class=""/>
<rect rx="6.0" ry="6.0" x="704.0" y="507.6530669589464" width="52.0" height="52.0" class=""/>
<rect rx="6.0" ry="6.0" x="760.0" y="521.6530669589464" width="52.0" height="52.0" class=""/>
<rect rx="6.0" ry="6.0" x="816.0" y="521.6530669589464" width="52.0" height="52.0" class=""/>
<rect rx="6.0" ry="6.0" x="228.0" y="565.5010669589464" width="52.0" height="52.0" class=""/>
<g transform="rotate(15.0, 315.59999999999997, 599.7330669589464)">
<rect rx="6.0" ry="6.0" x="289.59999999999997" y="573.7330669589464" width="52.0" height="52.0" class=""/>
</g>
<g transform="rotate(30.0, 381.12, 610.9330669589464)">
<rect rx="6.0" ry="6.0" x="355.12" y="570.9330669589464" width="52.0" height="80.0" class=""/>
</g>
<g transform="rotate(-30.0, 518.88, 610.9330669589464)">
<rect rx="6.0" ry="6.0" x="492.88" y="570.9330669589464" width="52.0" height="80.0" class=""/>
</g>
<g transform="rotate(-15.0, 584.4, 599.7330669589464)">
<rect rx="6.0" ry="6.0" x="558.4" y="573.7330669589464" width="52.0" height="52.0" class=""/>
</g>
<rect rx="6.0" ry="6.0" x="620.0" y="565.5010669589464" width="52.0" height="52.0" class=""/>
<rect rx="6.0" ry="6.0" x="184.0" y="405.1530669589464" width="28.0" height="26.0" class="combo"/>
<text x="198.0" y="418.1530669589464" class="combo">Esc</text>
<rect rx="6.0" ry="6.0" x="240.0" y="405.1530669589464" width="28.0" height="26.0" class="combo"/>
<text x="254.0" y="418.1530669589464" class="combo">↹</text>
<rect rx="6.0" ry="6.0" x="156.0" y="436.6530669589464" width="28.0" height="26.0" class="combo"/>
<text x="170.0" y="449.6530669589464" class="combo">@</text>
<rect rx="6.0" ry="6.0" x="212.0" y="429.6530669589464" width="28.0" height="26.0" class="combo"/>
<text x="226.0" y="442.6530669589464" class="combo">#</text>
<rect rx="6.0" ry="6.0" x="268.0" y="436.6530669589464" width="28.0" height="26.0" class="combo"/>
<text x="282.0" y="449.6530669589464" class="combo">$</text>
<rect rx="6.0" ry="6.0" x="324.0" y="443.6530669589464" width="28.0" height="26.0" class="combo"/>
<text x="338.0" y="456.6530669589464" class="combo">%</text>
<rect rx="6.0" ry="6.0" x="240.0" y="461.1530669589464" width="28.0" height="26.0" class="combo"/>
<text x="254.0" y="474.1530669589464" class="combo">⏎</text>
<rect rx="6.0" ry="6.0" x="156.0" y="492.6530669589464" width="28.0" height="26.0" class="combo"/>
<text x="170.0" y="505.6530669589464" class="combo">`</text>
<rect rx="6.0" ry="6.0" x="212.0" y="485.6530669589464" width="28.0" height="26.0" class="combo"/>
<text x="226.0" y="498.6530669589464" class="combo">\</text>
<rect rx="6.0" ry="6.0" x="268.0" y="492.6530669589464" width="28.0" height="26.0" class="combo"/>
<text x="282.0" y="505.6530669589464" class="combo">=</text>
<rect rx="6.0" ry="6.0" x="324.0" y="499.6530669589464" width="28.0" height="26.0" class="combo"/>
<text x="338.0" y="512.6530669589464" class="combo">~</text>
<rect rx="6.0" ry="6.0" x="184.0" y="517.1530669589464" width="28.0" height="26.0" class="combo"/>
<text x="198.0" y="530.1530669589464" class="combo">⌃C</text>
<rect rx="6.0" ry="6.0" x="240.0" y="517.1530669589464" width="28.0" height="26.0" class="combo"/>
<text x="254.0" y="530.1530669589464" class="combo">⌃V</text>
<path d="M226.0,562.6530669589464 h-50.0 a6.0,6.0 0 0 1 -6.0,-6.0 v-4.333333333333332"/>
<path d="M226.0,562.6530669589464 h50.0 a6.0,6.0 0 0 0 6.0,-6.0 v-4.333333333333332"/>
<rect rx="6.0" ry="6.0" x="212.0" y="549.6530669589464" width="28.0" height="26.0" class="combo"/>
<text x="226.0" y="562.6530669589464" class="combo">⌃X</text>
<rect rx="6.0" ry="6.0" x="632.0" y="405.1530669589464" width="28.0" height="26.0" class="combo"/>
<text x="646.0" y="418.1530669589464" class="combo">{</text>
<rect rx="6.0" ry="6.0" x="688.0" y="405.1530669589464" width="28.0" height="26.0" class="combo"/>
<text x="702.0" y="418.1530669589464" class="combo">}</text>
<rect rx="6.0" ry="6.0" x="632.0" y="461.1530669589464" width="28.0" height="26.0" class="combo"/>
<text x="646.0" y="474.1530669589464" class="combo">(</text>
<rect rx="6.0" ry="6.0" x="688.0" y="461.1530669589464" width="28.0" height="26.0" class="combo"/>
<text x="702.0" y="474.1530669589464" class="combo">)</text>
<rect rx="6.0" ry="6.0" x="632.0" y="517.1530669589464" width="28.0" height="26.0" class="combo"/>
<text x="646.0" y="530.1530669589464" class="combo">[</text>
<rect rx="6.0" ry="6.0" x="688.0" y="517.1530669589464" width="28.0" height="26.0" class="combo"/>
<text x="702.0" y="530.1530669589464" class="combo">]</text>
<rect rx="6.0" ry="6.0" x="548.0" y="443.6530669589464" width="28.0" height="26.0" class="combo"/>
<text x="562.0" y="456.6530669589464" class="combo">^</text>
<rect rx="6.0" ry="6.0" x="604.0" y="436.6530669589464" width="28.0" height="26.0" class="combo"/>
<text x="618.0" y="449.6530669589464" class="combo">+</text>
<rect rx="6.0" ry="6.0" x="660.0" y="429.6530669589464" width="28.0" height="26.0" class="combo"/>
<text x="674.0" y="442.6530669589464" class="combo">*</text>
<rect rx="6.0" ry="6.0" x="716.0" y="436.6530669589464" width="28.0" height="26.0" class="combo"/>
<text x="730.0" y="449.6530669589464" class="combo">&amp;</text>
<rect rx="6.0" ry="6.0" x="548.0" y="499.6530669589464" width="28.0" height="26.0" class="combo"/>
<text x="562.0" y="512.6530669589464" class="combo">_</text>
<rect rx="6.0" ry="6.0" x="604.0" y="492.6530669589464" width="28.0" height="26.0" class="combo"/>
<text x="618.0" y="505.6530669589464" class="combo">-</text>
<rect rx="6.0" ry="6.0" x="660.0" y="485.6530669589464" width="28.0" height="26.0" class="combo"/>
<text x="674.0" y="498.6530669589464" class="combo">/</text>
<rect rx="6.0" ry="6.0" x="716.0" y="492.6530669589464" width="28.0" height="26.0" class="combo"/>
<text x="730.0" y="505.6530669589464" class="combo">|</text>
<path d="M417.24,676.3330669589463 h-95.64000000000004 a6.0,6.0 0 0 1 -6.0,-6.0 v-51.93333333333324"/>
<path d="M417.24,676.3330669589463 h95.63999999999999 a6.0,6.0 0 0 0 6.0,-6.0 v-31.399999999999977"/>
<rect rx="6.0" ry="6.0" x="403.24" y="663.3330669589463" width="28.0" height="26.0" class="combo"/>
<text x="417.24" y="676.3330669589463" class="combo">FUN</text>
</g>
<g class="layer-NUMBER">
<text x="30.0" y="711.7061339178928" class="label">NUMBER:</text>
<rect rx="6.0" ry="6.0" x="32.0" y="762.7061339178928" width="52.0" height="52.0" class=""/>
<rect rx="6.0" ry="6.0" x="88.0" y="762.7061339178928" width="52.0" height="52.0" class=""/>
<text x="114.0" y="788.7061339178928" class="tap">[</text>
<text x="114.0" y="764.7061339178928" class="shifted">{</text>
<rect rx="6.0" ry="6.0" x="144.0" y="748.7061339178928" width="52.0" height="52.0" class=""/>
<text x="170.0" y="774.7061339178928" class="tap">7</text>
<text x="170.0" y="750.7061339178928" class="shifted">&amp;</text>
<rect rx="6.0" ry="6.0" x="200.0" y="741.7061339178928" width="52.0" height="52.0" class=""/>
<text x="226.0" y="767.7061339178928" class="tap">8</text>
<text x="226.0" y="743.7061339178928" class="shifted">*</text>
<rect rx="6.0" ry="6.0" x="256.0" y="748.7061339178928" width="52.0" height="52.0" class=""/>
<text x="282.0" y="774.7061339178928" class="tap">9</text>
<text x="282.0" y="750.7061339178928" class="shifted">(</text>
<rect rx="6.0" ry="6.0" x="312.0" y="755.7061339178928" width="52.0" height="52.0" class=""/>
<text x="338.0" y="781.7061339178928" class="tap">]</text>
<text x="338.0" y="757.7061339178928" class="shifted">}</text>
<rect rx="6.0" ry="6.0" x="536.0" y="755.7061339178928" width="52.0" height="52.0" class=""/>
<rect rx="6.0" ry="6.0" x="592.0" y="748.7061339178928" width="52.0" height="52.0" class=""/>
<rect rx="6.0" ry="6.0" x="648.0" y="741.7061339178928" width="52.0" height="52.0" class=""/>
<rect rx="6.0" ry="6.0" x="704.0" y="748.7061339178928" width="52.0" height="52.0" class=""/>
<rect rx="6.0" ry="6.0" x="760.0" y="762.7061339178928" width="52.0" height="52.0" class=""/>
<rect rx="6.0" ry="6.0" x="816.0" y="762.7061339178928" width="52.0" height="52.0" class=""/>
<rect rx="6.0" ry="6.0" x="32.0" y="818.7061339178928" width="52.0" height="52.0" class=""/>
<rect rx="6.0" ry="6.0" x="88.0" y="818.7061339178928" width="52.0" height="52.0" class=""/>
<text x="114.0" y="844.7061339178928" class="tap">0</text>
<text x="114.0" y="820.7061339178928" class="shifted">)</text>
<rect rx="6.0" ry="6.0" x="144.0" y="804.7061339178928" width="52.0" height="52.0" class=""/>
<text x="170.0" y="830.7061339178928" class="tap">4</text>
<text x="170.0" y="806.7061339178928" class="shifted">$</text>
<rect rx="6.0" ry="6.0" x="200.0" y="797.7061339178928" width="52.0" height="52.0" class=""/>
<text x="226.0" y="823.7061339178928" class="tap">5</text>
<text x="226.0" y="799.7061339178928" class="shifted">%</text>
<rect rx="6.0" ry="6.0" x="256.0" y="804.7061339178928" width="52.0" height="52.0" class=""/>
<text x="282.0" y="830.7061339178928" class="tap">6</text>
<text x="282.0" y="806.7061339178928" class="shifted">^</text>
<rect rx="6.0" ry="6.0" x="312.0" y="811.7061339178928" width="52.0" height="52.0" class=""/>
<text x="338.0" y="837.7061339178928" class="tap">=</text>
<text x="338.0" y="813.7061339178928" class="shifted">+</text>
<rect rx="6.0" ry="6.0" x="536.0" y="811.7061339178928" width="52.0" height="52.0" class=""/>
<rect rx="6.0" ry="6.0" x="592.0" y="804.7061339178928" width="52.0" height="52.0" class=""/>
<text x="618.0" y="854.7061339178928" class="hold">⌃</text>
<rect rx="6.0" ry="6.0" x="648.0" y="797.7061339178928" width="52.0" height="52.0" class=""/>
<text x="674.0" y="847.7061339178928" class="hold">⇧</text>
<rect rx="6.0" ry="6.0" x="704.0" y="804.7061339178928" width="52.0" height="52.0" class=""/>
<text x="730.0" y="854.7061339178928" class="hold">⎇</text>
<rect rx="6.0" ry="6.0" x="760.0" y="818.7061339178928" width="52.0" height="52.0" class=""/>
<text x="786.0" y="868.7061339178928" class="hold">⌘</text>
<rect rx="6.0" ry="6.0" x="816.0" y="818.7061339178928" width="52.0" height="52.0" class=""/>
<rect rx="6.0" ry="6.0" x="32.0" y="874.7061339178928" width="52.0" height="52.0" class=""/>
<rect rx="6.0" ry="6.0" x="88.0" y="874.7061339178928" width="52.0" height="52.0" class=""/>
<text x="114.0" y="900.7061339178928" class="tap">`</text>
<text x="114.0" y="876.7061339178928" class="shifted">~</text>
<rect rx="6.0" ry="6.0" x="144.0" y="860.7061339178928" width="52.0" height="52.0" class=""/>
<text x="170.0" y="886.7061339178928" class="tap">1</text>
<text x="170.0" y="862.7061339178928" class="shifted">!</text>
<rect rx="6.0" ry="6.0" x="200.0" y="853.7061339178928" width="52.0" height="52.0" class=""/>
<text x="226.0" y="879.7061339178928" class="tap">2</text>
<text x="226.0" y="855.7061339178928" class="shifted">@</text>
<rect rx="6.0" ry="6.0" x="256.0" y="860.7061339178928" width="52.0" height="52.0" class=""/>
<text x="282.0" y="886.7061339178928" class="tap">3</text>
<text x="282.0" y="862.7061339178928" class="shifted">#</text>
<rect rx="6.0" ry="6.0" x="312.0" y="867.7061339178928" width="52.0" height="52.0" class=""/>
<text x="338.0" y="893.7061339178928" class="tap">\</text>
<text x="338.0" y="869.7061339178928" class="shifted">|</text>
<rect rx="6.0" ry="6.0" x="536.0" y="867.7061339178928" width="52.0" height="52.0" class=""/>
<rect rx="6.0" ry="6.0" x="592.0" y="860.7061339178928" width="52.0" height="52.0" class=""/>
<rect rx="6.0" ry="6.0" x="648.0" y="853.7061339178928" width="52.0" height="52.0" class=""/>
<rect rx="6.0" ry="6.0" x="704.0" y="860.7061339178928" width="52.0" height="52.0" class=""/>
<rect rx="6.0" ry="6.0" x="760.0" y="874.7061339178928" width="52.0" height="52.0" class=""/>
<rect rx="6.0" ry="6.0" x="816.0" y="874.7061339178928" width="52.0" height="52.0" class=""/>
<rect rx="6.0" ry="6.0" x="228.0" y="918.5541339178927" width="52.0" height="52.0" class=""/>
<g transform="rotate(15.0, 315.59999999999997, 952.7861339178928)">
<rect rx="6.0" ry="6.0" x="289.59999999999997" y="926.7861339178928" width="52.0" height="52.0" class=""/>
</g>
<g transform="rotate(30.0, 381.12, 963.9861339178927)">
<rect rx="6.0" ry="6.0" x="355.12" y="923.9861339178927" width="52.0" height="80.0" class=""/>
</g>
<g transform="rotate(-30.0, 518.88, 963.9861339178927)">
<rect rx="6.0" ry="6.0" x="492.88" y="923.9861339178927" width="52.0" height="80.0" class="held"/>
</g>
<g transform="rotate(-15.0, 584.4, 952.7861339178928)">
<rect rx="6.0" ry="6.0" x="558.4" y="926.7861339178928" width="52.0" height="52.0" class=""/>
<text x="584.4" y="952.7861339178928" class="tap">CANCEL</text>
</g>
<rect rx="6.0" ry="6.0" x="620.0" y="918.5541339178927" width="52.0" height="52.0" class=""/>
</g>
<g class="layer-NAV">
<text x="30.0" y="1042.3592008768392" class="label">NAV:</text>
<rect rx="6.0" ry="6.0" x="32.0" y="1093.3592008768392" width="52.0" height="52.0" class=""/>
<rect rx="6.0" ry="6.0" x="88.0" y="1093.3592008768392" width="52.0" height="52.0" class=""/>
<text x="114.0" y="1119.3592008768392" class="tap">Esc</text>
<rect rx="6.0" ry="6.0" x="144.0" y="1079.3592008768392" width="52.0" height="52.0" class=""/>
<rect rx="6.0" ry="6.0" x="200.0" y="1072.3592008768392" width="52.0" height="52.0" class=""/>
<rect rx="6.0" ry="6.0" x="256.0" y="1079.3592008768392" width="52.0" height="52.0" class=""/>
<rect rx="6.0" ry="6.0" x="312.0" y="1086.3592008768392" width="52.0" height="52.0" class=""/>
<rect rx="6.0" ry="6.0" x="536.0" y="1086.3592008768392" width="52.0" height="52.0" class=""/>
<rect rx="6.0" ry="6.0" x="592.0" y="1079.3592008768392" width="52.0" height="52.0" class=""/>
<rect rx="6.0" ry="6.0" x="648.0" y="1072.3592008768392" width="52.0" height="52.0" class=""/>
<rect rx="6.0" ry="6.0" x="704.0" y="1079.3592008768392" width="52.0" height="52.0" class=""/>
<text x="730.0" y="1105.3592008768392" class="tap">⌫</text>
<rect rx="6.0" ry="6.0" x="760.0" y="1093.3592008768392" width="52.0" height="52.0" class=""/>
<text x="786.0" y="1119.3592008768392" class="tap">⌦</text>
<rect rx="6.0" ry="6.0" x="816.0" y="1093.3592008768392" width="52.0" height="52.0" class=""/>
<rect rx="6.0" ry="6.0" x="32.0" y="1149.3592008768392" width="52.0" height="52.0" class=""/>
<rect rx="6.0" ry="6.0" x="88.0" y="1149.3592008768392" width="52.0" height="52.0" class=""/>
<text x="114.0" y="1199.3592008768392" class="hold">⌘</text>
<rect rx="6.0" ry="6.0" x="144.0" y="1135.3592008768392" width="52.0" height="52.0" class=""/>
<text x="170.0" y="1185.3592008768392" class="hold">⎇</text>
<rect rx="6.0" ry="6.0" x="200.0" y="1128.3592008768392" width="52.0" height="52.0" class=""/>
<text x="226.0" y="1178.3592008768392" class="hold">⇧</text>
<rect rx="6.0" ry="6.0" x="256.0" y="1135.3592008768392" width="52.0" height="52.0" class=""/>
<text x="282.0" y="1185.3592008768392" class="hold">⌃</text>
<rect rx="6.0" ry="6.0" x="312.0" y="1142.3592008768392" width="52.0" height="52.0" class=""/>
<rect rx="6.0" ry="6.0" x="536.0" y="1142.3592008768392" width="52.0" height="52.0" class=""/>
<text x="562.0" y="1168.3592008768392" class="tap">LEFT</text>
<rect rx="6.0" ry="6.0" x="592.0" y="1135.3592008768392" width="52.0" height="52.0" class=""/>
<text x="618.0" y="1161.3592008768392" class="tap">DOWN</text>
<rect rx="6.0" ry="6.0" x="648.0" y="1128.3592008768392" width="52.0" height="52.0" class=""/>
<text x="674.0" y="1154.3592008768392" class="tap">UP</text>
<rect rx="6.0" ry="6.0" x="704.0" y="1135.3592008768392" width="52.0" height="52.0" class=""/>
<text x="730.0" y="1161.3592008768392" class="tap">RIGHT</text>
<rect rx="6.0" ry="6.0" x="760.0" y="1149.3592008768392" width="52.0" height="52.0" class=""/>
<text x="786.0" y="1175.3592008768392" class="tap">⏎</text>
<rect rx="6.0" ry="6.0" x="816.0" y="1149.3592008768392" width="52.0" height="52.0" class=""/>
<rect rx="6.0" ry="6.0" x="32.0" y="1205.3592008768392" width="52.0" height="52.0" class=""/>
<rect rx="6.0" ry="6.0" x="88.0" y="1205.3592008768392" width="52.0" height="52.0" class=""/>
<rect rx="6.0" ry="6.0" x="144.0" y="1191.3592008768392" width="52.0" height="52.0" class=""/>
<rect rx="6.0" ry="6.0" x="200.0" y="1184.3592008768392" width="52.0" height="52.0" class=""/>
<rect rx="6.0" ry="6.0" x="256.0" y="1191.3592008768392" width="52.0" height="52.0" class=""/>
<rect rx="6.0" ry="6.0" x="312.0" y="1198.3592008768392" width="52.0" height="52.0" class=""/>
<rect rx="6.0" ry="6.0" x="536.0" y="1198.3592008768392" width="52.0" height="52.0" class=""/>
<text x="562.0" y="1224.3592008768392" class="tap">HOME</text>
<rect rx="6.0" ry="6.0" x="592.0" y="1191.3592008768392" width="52.0" height="52.0" class=""/>
<text x="618.0" y="1217.3592008768392" class="tap">
<tspan x="618.0" dy="-0.6em">PG</tspan><tspan x="618.0" dy="1.2em">DN</tspan></text>
<rect rx="6.0" ry="6.0" x="648.0" y="1184.3592008768392" width="52.0" height="52.0" class=""/>
<text x="674.0" y="1210.3592008768392" class="tap">
<tspan x="674.0" dy="-0.6em">PG</tspan><tspan x="674.0" dy="1.2em">UP</tspan></text>
<rect rx="6.0" ry="6.0" x="704.0" y="1191.3592008768392" width="52.0" height="52.0" class=""/>
<text x="730.0" y="1217.3592008768392" class="tap">END</text>
<rect rx="6.0" ry="6.0" x="760.0" y="1205.3592008768392" width="52.0" height="52.0" class=""/>
<text x="786.0" y="1231.3592008768392" class="tap">INS</text>
<rect rx="6.0" ry="6.0" x="816.0" y="1205.3592008768392" width="52.0" height="52.0" class=""/>
<rect rx="6.0" ry="6.0" x="228.0" y="1249.2072008768391" width="52.0" height="52.0" class=""/>
<g transform="rotate(15.0, 315.59999999999997, 1283.439200876839)">
<rect rx="6.0" ry="6.0" x="289.59999999999997" y="1257.439200876839" width="52.0" height="52.0" class="held"/>
</g>
<g transform="rotate(30.0, 381.12, 1294.6392008768391)">
<rect rx="6.0" ry="6.0" x="355.12" y="1254.6392008768391" width="52.0" height="80.0" class=""/>
</g>
<g transform="rotate(-30.0, 518.88, 1294.6392008768391)">
<rect rx="6.0" ry="6.0" x="492.88" y="1254.6392008768391" width="52.0" height="80.0" class=""/>
</g>
<g transform="rotate(-15.0, 584.4, 1283.439200876839)">
<rect rx="6.0" ry="6.0" x="558.4" y="1257.439200876839" width="52.0" height="52.0" class=""/>
<text x="584.4" y="1283.439200876839" class="tap">CANCEL</text>
</g>
<rect rx="6.0" ry="6.0" x="620.0" y="1249.2072008768391" width="52.0" height="52.0" class=""/>
</g>
<g class="layer-FUN">
<text x="30.0" y="1373.0122678357857" class="label">FUN:</text>
<rect rx="6.0" ry="6.0" x="32.0" y="1424.0122678357857" width="52.0" height="52.0" class=""/>
<rect rx="6.0" ry="6.0" x="88.0" y="1424.0122678357857" width="52.0" height="52.0" class=""/>
<text x="114.0" y="1450.0122678357857" class="tap">F12</text>
<rect rx="6.0" ry="6.0" x="144.0" y="1410.0122678357857" width="52.0" height="52.0" class=""/>
<text x="170.0" y="1436.0122678357857" class="tap">F7</text>
<rect rx="6.0" ry="6.0" x="200.0" y="1403.0122678357857" width="52.0" height="52.0" class=""/>
<text x="226.0" y="1429.0122678357857" class="tap">F8</text>
<rect rx="6.0" ry="6.0" x="256.0" y="1410.0122678357857" width="52.0" height="52.0" class=""/>
<text x="282.0" y="1436.0122678357857" class="tap">F9</text>
<rect rx="6.0" ry="6.0" x="312.0" y="1417.0122678357857" width="52.0" height="52.0" class=""/>
<text x="338.0" y="1443.0122678357857" class="tap">
<tspan x="338.0" dy="-0.6em">To</tspan><tspan x="338.0" dy="1.2em">Base</tspan></text>
<rect rx="6.0" ry="6.0" x="536.0" y="1417.0122678357857" width="52.0" height="52.0" class=""/>
<text x="562.0" y="1443.0122678357857" class="tap">
<tspan x="562.0" dy="-0.6em">BT</tspan><tspan x="562.0" dy="1.2em">CLR</tspan></text>
<rect rx="6.0" ry="6.0" x="592.0" y="1410.0122678357857" width="52.0" height="52.0" class=""/>
<rect rx="6.0" ry="6.0" x="648.0" y="1403.0122678357857" width="52.0" height="52.0" class=""/>
<rect rx="6.0" ry="6.0" x="704.0" y="1410.0122678357857" width="52.0" height="52.0" class=""/>
<rect rx="6.0" ry="6.0" x="760.0" y="1424.0122678357857" width="52.0" height="52.0" class=""/>
<rect rx="6.0" ry="6.0" x="816.0" y="1424.0122678357857" width="52.0" height="52.0" class=""/>
<rect rx="6.0" ry="6.0" x="32.0" y="1480.0122678357857" width="52.0" height="52.0" class=""/>
<rect rx="6.0" ry="6.0" x="88.0" y="1480.0122678357857" width="52.0" height="52.0" class=""/>
<text x="114.0" y="1506.0122678357857" class="tap">F11</text>
<rect rx="6.0" ry="6.0" x="144.0" y="1466.0122678357857" width="52.0" height="52.0" class=""/>
<text x="170.0" y="1492.0122678357857" class="tap">F4</text>
<rect rx="6.0" ry="6.0" x="200.0" y="1459.0122678357857" width="52.0" height="52.0" class=""/>
<text x="226.0" y="1485.0122678357857" class="tap">F5</text>
<rect rx="6.0" ry="6.0" x="256.0" y="1466.0122678357857" width="52.0" height="52.0" class=""/>
<text x="282.0" y="1492.0122678357857" class="tap">F6</text>
<rect rx="6.0" ry="6.0" x="312.0" y="1473.0122678357857" width="52.0" height="52.0" class=""/>
<text x="338.0" y="1499.0122678357857" class="tap">
<tspan x="338.0" dy="-0.6em">To</tspan><tspan x="338.0" dy="1.2em">Qwerty</tspan></text>
<rect rx="6.0" ry="6.0" x="536.0" y="1473.0122678357857" width="52.0" height="52.0" class=""/>
<text x="562.0" y="1499.0122678357857" class="tap">
<tspan x="562.0" dy="-0.6em">OUT</tspan><tspan x="562.0" dy="1.2em">USB</tspan></text>
<rect rx="6.0" ry="6.0" x="592.0" y="1466.0122678357857" width="52.0" height="52.0" class=""/>
<text x="618.0" y="1516.0122678357857" class="hold">⌃</text>
<rect rx="6.0" ry="6.0" x="648.0" y="1459.0122678357857" width="52.0" height="52.0" class=""/>
<text x="674.0" y="1509.0122678357857" class="hold">⇧</text>
<rect rx="6.0" ry="6.0" x="704.0" y="1466.0122678357857" width="52.0" height="52.0" class=""/>
<text x="730.0" y="1516.0122678357857" class="hold">⎇</text>
<rect rx="6.0" ry="6.0" x="760.0" y="1480.0122678357857" width="52.0" height="52.0" class=""/>
<text x="786.0" y="1530.0122678357857" class="hold">⌘</text>
<rect rx="6.0" ry="6.0" x="816.0" y="1480.0122678357857" width="52.0" height="52.0" class=""/>
<rect rx="6.0" ry="6.0" x="32.0" y="1536.0122678357857" width="52.0" height="52.0" class=""/>
<rect rx="6.0" ry="6.0" x="88.0" y="1536.0122678357857" width="52.0" height="52.0" class=""/>
<text x="114.0" y="1562.0122678357857" class="tap">F10</text>
<rect rx="6.0" ry="6.0" x="144.0" y="1522.0122678357857" width="52.0" height="52.0" class=""/>
<text x="170.0" y="1548.0122678357857" class="tap">F1</text>
<rect rx="6.0" ry="6.0" x="200.0" y="1515.0122678357857" width="52.0" height="52.0" class=""/>
<text x="226.0" y="1541.0122678357857" class="tap">F2</text>
<rect rx="6.0" ry="6.0" x="256.0" y="1522.0122678357857" width="52.0" height="52.0" class=""/>
<text x="282.0" y="1548.0122678357857" class="tap">F3</text>
<rect rx="6.0" ry="6.0" x="312.0" y="1529.0122678357857" width="52.0" height="52.0" class=""/>
<rect rx="6.0" ry="6.0" x="536.0" y="1529.0122678357857" width="52.0" height="52.0" class=""/>
<text x="562.0" y="1555.0122678357857" class="tap">
<tspan x="562.0" dy="-0.6em">OUT</tspan><tspan x="562.0" dy="1.2em">BLE</tspan></text>
<rect rx="6.0" ry="6.0" x="592.0" y="1522.0122678357857" width="52.0" height="52.0" class=""/>
<text x="618.0" y="1548.0122678357857" class="tap">
<tspan x="618.0" dy="-0.6em">BT</tspan><tspan x="618.0" dy="1.2em">0</tspan></text>
<rect rx="6.0" ry="6.0" x="648.0" y="1515.0122678357857" width="52.0" height="52.0" class=""/>
<text x="674.0" y="1541.0122678357857" class="tap">
<tspan x="674.0" dy="-0.6em">BT</tspan><tspan x="674.0" dy="1.2em">1</tspan></text>
<rect rx="6.0" ry="6.0" x="704.0" y="1522.0122678357857" width="52.0" height="52.0" class=""/>
<text x="730.0" y="1548.0122678357857" class="tap">
<tspan x="730.0" dy="-0.6em">BT</tspan><tspan x="730.0" dy="1.2em">2</tspan></text>
<rect rx="6.0" ry="6.0" x="760.0" y="1536.0122678357857" width="52.0" height="52.0" class=""/>
<text x="786.0" y="1562.0122678357857" class="tap">
<tspan x="786.0" dy="-0.6em">BT</tspan><tspan x="786.0" dy="1.2em">3</tspan></text>
<rect rx="6.0" ry="6.0" x="816.0" y="1536.0122678357857" width="52.0" height="52.0" class=""/>
<rect rx="6.0" ry="6.0" x="228.0" y="1579.8602678357856" width="52.0" height="52.0" class=""/>
<g transform="rotate(15.0, 315.59999999999997, 1614.0922678357856)">
<rect rx="6.0" ry="6.0" x="289.59999999999997" y="1588.0922678357856" width="52.0" height="52.0" class="held"/>
</g>
<g transform="rotate(30.0, 381.12, 1625.2922678357857)">
<rect rx="6.0" ry="6.0" x="355.12" y="1585.2922678357857" width="52.0" height="80.0" class=""/>
</g>
<g transform="rotate(-30.0, 518.88, 1625.2922678357857)">
<rect rx="6.0" ry="6.0" x="492.88" y="1585.2922678357857" width="52.0" height="80.0" class="held"/>
</g>
<g transform="rotate(-15.0, 584.4, 1614.0922678357856)">
<rect rx="6.0" ry="6.0" x="558.4" y="1588.0922678357856" width="52.0" height="52.0" class=""/>
</g>
<rect rx="6.0" ry="6.0" x="620.0" y="1579.8602678357856" width="52.0" height="52.0" class=""/>
</g>
<g class="layer-MOUSE">
<text x="30.0" y="1703.6653347947322" class="label">MOUSE:</text>
<rect rx="6.0" ry="6.0" x="32.0" y="1754.6653347947322" width="52.0" height="52.0" class=""/>
<rect rx="6.0" ry="6.0" x="88.0" y="1754.6653347947322" width="52.0" height="52.0" class=""/>
<rect rx="6.0" ry="6.0" x="144.0" y="1740.6653347947322" width="52.0" height="52.0" class=""/>
<rect rx="6.0" ry="6.0" x="200.0" y="1733.6653347947322" width="52.0" height="52.0" class=""/>
<rect rx="6.0" ry="6.0" x="256.0" y="1740.6653347947322" width="52.0" height="52.0" class=""/>
<rect rx="6.0" ry="6.0" x="312.0" y="1747.6653347947322" width="52.0" height="52.0" class=""/>
<text x="338.0" y="1773.6653347947322" class="tap">
<tspan x="338.0" dy="-0.6em">To</tspan><tspan x="338.0" dy="1.2em">Base</tspan></text>
<rect rx="6.0" ry="6.0" x="536.0" y="1747.6653347947322" width="52.0" height="52.0" class=""/>
<text x="562.0" y="1773.6653347947322" class="tap">
<tspan x="562.0" dy="-0.6em">Scroll</tspan><tspan x="562.0" dy="1.2em">Left</tspan></text>
<rect rx="6.0" ry="6.0" x="592.0" y="1740.6653347947322" width="52.0" height="52.0" class=""/>
<text x="618.0" y="1766.6653347947322" class="tap">
<tspan x="618.0" dy="-0.6em">Scroll</tspan><tspan x="618.0" dy="1.2em">Down</tspan></text>
<rect rx="6.0" ry="6.0" x="648.0" y="1733.6653347947322" width="52.0" height="52.0" class=""/>
<text x="674.0" y="1759.6653347947322" class="tap">
<tspan x="674.0" dy="-0.6em">Scroll</tspan><tspan x="674.0" dy="1.2em">Up</tspan></text>
<rect rx="6.0" ry="6.0" x="704.0" y="1740.6653347947322" width="52.0" height="52.0" class=""/>
<text x="730.0" y="1766.6653347947322" class="tap">
<tspan x="730.0" dy="-0.6em">Scroll</tspan><tspan x="730.0" dy="1.2em">Right</tspan></text>
<rect rx="6.0" ry="6.0" x="760.0" y="1754.6653347947322" width="52.0" height="52.0" class=""/>
<text x="786.0" y="1780.6653347947322" class="tap">FWD</text>
<rect rx="6.0" ry="6.0" x="816.0" y="1754.6653347947322" width="52.0" height="52.0" class=""/>
<rect rx="6.0" ry="6.0" x="32.0" y="1810.6653347947322" width="52.0" height="52.0" class=""/>
<rect rx="6.0" ry="6.0" x="88.0" y="1810.6653347947322" width="52.0" height="52.0" class=""/>
<text x="114.0" y="1860.6653347947322" class="hold">⌘</text>
<rect rx="6.0" ry="6.0" x="144.0" y="1796.6653347947322" width="52.0" height="52.0" class=""/>
<text x="170.0" y="1846.6653347947322" class="hold">⎇</text>
<rect rx="6.0" ry="6.0" x="200.0" y="1789.6653347947322" width="52.0" height="52.0" class=""/>
<text x="226.0" y="1839.6653347947322" class="hold">⇧</text>
<rect rx="6.0" ry="6.0" x="256.0" y="1796.6653347947322" width="52.0" height="52.0" class=""/>
<text x="282.0" y="1846.6653347947322" class="hold">⌃</text>
<rect rx="6.0" ry="6.0" x="312.0" y="1803.6653347947322" width="52.0" height="52.0" class=""/>
<rect rx="6.0" ry="6.0" x="536.0" y="1803.6653347947322" width="52.0" height="52.0" class=""/>
<text x="562.0" y="1829.6653347947322" class="tap">LEFT</text>
<rect rx="6.0" ry="6.0" x="592.0" y="1796.6653347947322" width="52.0" height="52.0" class=""/>
<text x="618.0" y="1822.6653347947322" class="tap">DOWN</text>
<rect rx="6.0" ry="6.0" x="648.0" y="1789.6653347947322" width="52.0" height="52.0" class=""/>
<text x="674.0" y="1815.6653347947322" class="tap">UP</text>
<rect rx="6.0" ry="6.0" x="704.0" y="1796.6653347947322" width="52.0" height="52.0" class=""/>
<text x="730.0" y="1822.6653347947322" class="tap">RIGHT</text>
<rect rx="6.0" ry="6.0" x="760.0" y="1810.6653347947322" width="52.0" height="52.0" class=""/>
<text x="786.0" y="1836.6653347947322" class="tap">BACK</text>
<rect rx="6.0" ry="6.0" x="816.0" y="1810.6653347947322" width="52.0" height="52.0" class=""/>
<rect rx="6.0" ry="6.0" x="32.0" y="1866.6653347947322" width="52.0" height="52.0" class=""/>
<rect rx="6.0" ry="6.0" x="88.0" y="1866.6653347947322" width="52.0" height="52.0" class=""/>
<rect rx="6.0" ry="6.0" x="144.0" y="1852.6653347947322" width="52.0" height="52.0" class=""/>
<rect rx="6.0" ry="6.0" x="200.0" y="1845.6653347947322" width="52.0" height="52.0" class=""/>
<rect rx="6.0" ry="6.0" x="256.0" y="1852.6653347947322" width="52.0" height="52.0" class=""/>
<rect rx="6.0" ry="6.0" x="312.0" y="1859.6653347947322" width="52.0" height="52.0" class=""/>
<rect rx="6.0" ry="6.0" x="536.0" y="1859.6653347947322" width="52.0" height="52.0" class=""/>
<text x="562.0" y="1885.6653347947322" class="tap">HOME</text>
<rect rx="6.0" ry="6.0" x="592.0" y="1852.6653347947322" width="52.0" height="52.0" class=""/>
<text x="618.0" y="1878.6653347947322" class="tap">
<tspan x="618.0" dy="-0.6em">PG</tspan><tspan x="618.0" dy="1.2em">DN</tspan></text>
<rect rx="6.0" ry="6.0" x="648.0" y="1845.6653347947322" width="52.0" height="52.0" class=""/>
<text x="674.0" y="1871.6653347947322" class="tap">
<tspan x="674.0" dy="-0.6em">PG</tspan><tspan x="674.0" dy="1.2em">UP</tspan></text>
<rect rx="6.0" ry="6.0" x="704.0" y="1852.6653347947322" width="52.0" height="52.0" class=""/>
<text x="730.0" y="1878.6653347947322" class="tap">END</text>
<rect rx="6.0" ry="6.0" x="760.0" y="1866.6653347947322" width="52.0" height="52.0" class=""/>
<text x="786.0" y="1892.6653347947322" class="tap">INS</text>
<rect rx="6.0" ry="6.0" x="816.0" y="1866.6653347947322" width="52.0" height="52.0" class=""/>
<rect rx="6.0" ry="6.0" x="228.0" y="1910.5133347947321" width="52.0" height="52.0" class=""/>
<g transform="rotate(15.0, 315.59999999999997, 1944.7453347947321)">
<rect rx="6.0" ry="6.0" x="289.59999999999997" y="1918.7453347947321" width="52.0" height="52.0" class=""/>
</g>
<g transform="rotate(30.0, 381.12, 1955.9453347947322)">
<rect rx="6.0" ry="6.0" x="355.12" y="1915.9453347947322" width="52.0" height="80.0" class="held"/>
</g>
<g transform="rotate(-30.0, 518.88, 1955.9453347947322)">
<rect rx="6.0" ry="6.0" x="492.88" y="1915.9453347947322" width="52.0" height="80.0" class=""/>
<text x="518.88" y="1955.9453347947322" class="tap">RCLK</text>
</g>
<g transform="rotate(-15.0, 584.4, 1944.7453347947321)">
<rect rx="6.0" ry="6.0" x="558.4" y="1918.7453347947321" width="52.0" height="52.0" class=""/>
<text x="584.4" y="1944.7453347947321" class="tap">LCLK</text>
</g>
<rect rx="6.0" ry="6.0" x="620.0" y="1910.5133347947321" width="52.0" height="52.0" class=""/>
<text x="646.0" y="1936.5133347947321" class="tap">MCLK</text>
</g>
<g class="layer-QWERTY">
<text x="30.0" y="2034.3184017536787" class="label">QWERTY:</text>
<rect rx="6.0" ry="6.0" x="32.0" y="2085.3184017536787" width="52.0" height="52.0" class=""/>
<rect rx="6.0" ry="6.0" x="88.0" y="2085.3184017536787" width="52.0" height="52.0" class=""/>
<text x="114.0" y="2111.3184017536787" class="tap">Q</text>
<rect rx="6.0" ry="6.0" x="144.0" y="2071.3184017536787" width="52.0" height="52.0" class=""/>
<text x="170.0" y="2097.3184017536787" class="tap">W</text>
<rect rx="6.0" ry="6.0" x="200.0" y="2064.3184017536787" width="52.0" height="52.0" class=""/>
<text x="226.0" y="2090.3184017536787" class="tap">E</text>
<rect rx="6.0" ry="6.0" x="256.0" y="2071.3184017536787" width="52.0" height="52.0" class=""/>
<text x="282.0" y="2097.3184017536787" class="tap">R</text>
<rect rx="6.0" ry="6.0" x="312.0" y="2078.3184017536787" width="52.0" height="52.0" class=""/>
<text x="338.0" y="2104.3184017536787" class="tap">T</text>
<rect rx="6.0" ry="6.0" x="536.0" y="2078.3184017536787" width="52.0" height="52.0" class=""/>
<text x="562.0" y="2104.3184017536787" class="tap">Y</text>
<rect rx="6.0" ry="6.0" x="592.0" y="2071.3184017536787" width="52.0" height="52.0" class=""/>
<text x="618.0" y="2097.3184017536787" class="tap">U</text>
<rect rx="6.0" ry="6.0" x="648.0" y="2064.3184017536787" width="52.0" height="52.0" class=""/>
<text x="674.0" y="2090.3184017536787" class="tap">I</text>
<rect rx="6.0" ry="6.0" x="704.0" y="2071.3184017536787" width="52.0" height="52.0" class=""/>
<text x="730.0" y="2097.3184017536787" class="tap">O</text>
<rect rx="6.0" ry="6.0" x="760.0" y="2085.3184017536787" width="52.0" height="52.0" class=""/>
<text x="786.0" y="2111.3184017536787" class="tap">P</text>
<rect rx="6.0" ry="6.0" x="816.0" y="2085.3184017536787" width="52.0" height="52.0" class=""/>
<text x="842.0" y="2111.3184017536787" class="tap">[</text>
<rect rx="6.0" ry="6.0" x="32.0" y="2141.3184017536787" width="52.0" height="52.0" class=""/>
<rect rx="6.0" ry="6.0" x="88.0" y="2141.3184017536787" width="52.0" height="52.0" class=""/>
<text x="114.0" y="2167.3184017536787" class="tap">A</text>
<rect rx="6.0" ry="6.0" x="144.0" y="2127.3184017536787" width="52.0" height="52.0" class=""/>
<text x="170.0" y="2153.3184017536787" class="tap">S</text>
<rect rx="6.0" ry="6.0" x="200.0" y="2120.3184017536787" width="52.0" height="52.0" class=""/>
<text x="226.0" y="2146.3184017536787" class="tap">D</text>
<rect rx="6.0" ry="6.0" x="256.0" y="2127.3184017536787" width="52.0" height="52.0" class=""/>
<text x="282.0" y="2153.3184017536787" class="tap">F</text>
<rect rx="6.0" ry="6.0" x="312.0" y="2134.3184017536787" width="52.0" height="52.0" class=""/>
<text x="338.0" y="2160.3184017536787" class="tap">G</text>
<rect rx="6.0" ry="6.0" x="536.0" y="2134.3184017536787" width="52.0" height="52.0" class=""/>
<text x="562.0" y="2160.3184017536787" class="tap">H</text>
<rect rx="6.0" ry="6.0" x="592.0" y="2127.3184017536787" width="52.0" height="52.0" class=""/>
<text x="618.0" y="2153.3184017536787" class="tap">J</text>
<rect rx="6.0" ry="6.0" x="648.0" y="2120.3184017536787" width="52.0" height="52.0" class=""/>
<text x="674.0" y="2146.3184017536787" class="tap">K</text>
<rect rx="6.0" ry="6.0" x="704.0" y="2127.3184017536787" width="52.0" height="52.0" class=""/>
<text x="730.0" y="2153.3184017536787" class="tap">L</text>
<rect rx="6.0" ry="6.0" x="760.0" y="2141.3184017536787" width="52.0" height="52.0" class=""/>
<text x="786.0" y="2167.3184017536787" class="tap">;</text>
<rect rx="6.0" ry="6.0" x="816.0" y="2141.3184017536787" width="52.0" height="52.0" class=""/>
<text x="842.0" y="2167.3184017536787" class="tap">&#x27;</text>
<rect rx="6.0" ry="6.0" x="32.0" y="2197.3184017536787" width="52.0" height="52.0" class=""/>
<rect rx="6.0" ry="6.0" x="88.0" y="2197.3184017536787" width="52.0" height="52.0" class=""/>
<text x="114.0" y="2223.3184017536787" class="tap">Z</text>
<rect rx="6.0" ry="6.0" x="144.0" y="2183.3184017536787" width="52.0" height="52.0" class=""/>
<text x="170.0" y="2209.3184017536787" class="tap">X</text>
<rect rx="6.0" ry="6.0" x="200.0" y="2176.3184017536787" width="52.0" height="52.0" class=""/>
<text x="226.0" y="2202.3184017536787" class="tap">C</text>
<rect rx="6.0" ry="6.0" x="256.0" y="2183.3184017536787" width="52.0" height="52.0" class=""/>
<text x="282.0" y="2209.3184017536787" class="tap">V</text>
<rect rx="6.0" ry="6.0" x="312.0" y="2190.3184017536787" width="52.0" height="52.0" class=""/>
<text x="338.0" y="2216.3184017536787" class="tap">B</text>
<rect rx="6.0" ry="6.0" x="536.0" y="2190.3184017536787" width="52.0" height="52.0" class=""/>
<text x="562.0" y="2216.3184017536787" class="tap">N</text>
<rect rx="6.0" ry="6.0" x="592.0" y="2183.3184017536787" width="52.0" height="52.0" class=""/>
<text x="618.0" y="2209.3184017536787" class="tap">M</text>
<rect rx="6.0" ry="6.0" x="648.0" y="2176.3184017536787" width="52.0" height="52.0" class=""/>
<text x="674.0" y="2202.3184017536787" class="tap">,</text>
<rect rx="6.0" ry="6.0" x="704.0" y="2183.3184017536787" width="52.0" height="52.0" class=""/>
<text x="730.0" y="2209.3184017536787" class="tap">.</text>
<rect rx="6.0" ry="6.0" x="760.0" y="2197.3184017536787" width="52.0" height="52.0" class=""/>
<text x="786.0" y="2223.3184017536787" class="tap">/</text>
<rect rx="6.0" ry="6.0" x="816.0" y="2197.3184017536787" width="52.0" height="52.0" class=""/>
<text x="842.0" y="2223.3184017536787" class="tap">
<tspan x="842.0" dy="-0.6em">To</tspan><tspan x="842.0" dy="1.2em">Base</tspan></text>
<rect rx="6.0" ry="6.0" x="228.0" y="2241.1664017536787" width="52.0" height="52.0" class=""/>
<g transform="rotate(15.0, 315.59999999999997, 2275.3984017536786)">
<rect rx="6.0" ry="6.0" x="289.59999999999997" y="2249.3984017536786" width="52.0" height="52.0" class=""/>
<text x="315.59999999999997" y="2275.3984017536786" class="tap">⎵</text>
</g>
<g transform="rotate(30.0, 381.12, 2286.598401753679)">
<rect rx="6.0" ry="6.0" x="355.12" y="2246.598401753679" width="52.0" height="80.0" class=""/>
<text x="381.12" y="2286.598401753679" class="tap">↹</text>
</g>
<g transform="rotate(-30.0, 518.88, 2286.598401753679)">
<rect rx="6.0" ry="6.0" x="492.88" y="2246.598401753679" width="52.0" height="80.0" class=""/>
<text x="518.88" y="2286.598401753679" class="tap">⏎</text>
</g>
<g transform="rotate(-15.0, 584.4, 2275.3984017536786)">
<rect rx="6.0" ry="6.0" x="558.4" y="2249.3984017536786" width="52.0" height="52.0" class=""/>
<text x="584.4" y="2275.3984017536786" class="tap">⇧</text>
</g>
<rect rx="6.0" ry="6.0" x="620.0" y="2241.1664017536787" width="52.0" height="52.0" class=""/>
<text x="646.0" y="2267.1664017536787" class="tap">⌫</text>
</g>
</svg>
